<svg xmlns="http://www.w3.org/2000/svg" width="1300" height="129">
    <path
        d="M649.073 46.24c72.705 18.383 146.249 31.52 220.99 38.01l2.637.234c31.871 2.784 63.8 3.863 95.782 3.777 4.236-.012 8.472-.005 12.709.007 31.541.072 63.013-1.194 94.434-4.018l2.82-.249c65.584-5.835 132.24-16.791 194.785-37.821C1277 45 1277 45 1280 45v84H0V44c28.47-9.49 28.47-9.49 41.812-12.937l2.38-.62c59.062-15.33 119.794-24.063 180.625-28.29q3.18-.227 6.356-.47c92.55-6.94 187.102-.569 417.9 44.557"
        fill="#6699ff" />
</svg>